<?xml version="1.0" standalone="no"?>
<!DOCTYPE svg PUBLIC "-//W3C//DTD SVG 20010904//EN"
 "http://www.w3.org/TR/2001/REC-SVG-20010904/DTD/svg10.dtd">
<svg version="1.0" xmlns="http://www.w3.org/2000/svg"
 width="1536.000000pt" height="609.000000pt" viewBox="0 0 1536.000000 609.000000"
 preserveAspectRatio="xMidYMid meet">
<metadata>
Created by potrace 1.16, written by Peter Selinger 2001-2019
</metadata>
<g transform="translate(0.000000,609.000000) scale(0.100000,-0.100000)"
fill="#000000" stroke="none">
<path d="M6235 6060 c-88 -4 -171 -10 -185 -14 -14 -4 -47 -2 -75 3 -43 8 -68
5 -185 -25 -74 -19 -184 -51 -245 -71 -67 -21 -127 -35 -154 -34 -46 1 -160
-21 -333 -65 -53 -13 -118 -24 -144 -24 -78 0 -224 -40 -265 -72 -32 -26 -45
-29 -140 -34 -100 -6 -109 -9 -239 -66 -74 -33 -194 -90 -267 -128 -213 -110
-357 -160 -668 -230 -394 -90 -911 -229 -1095 -296 -264 -95 -448 -216 -697
-457 -388 -377 -634 -730 -955 -1372 -151 -301 -256 -537 -425 -960 -172 -430
-186 -495 -114 -538 65 -38 149 -10 202 67 13 20 30 38 37 41 18 7 52 -31 52
-59 0 -30 22 -49 52 -44 17 2 53 54 161 233 389 644 468 758 656 946 325 323
703 524 1206 639 150 34 135 34 475 14 19 -1 157 -2 306 -3 l271 -1 58 -76
c32 -41 84 -98 117 -126 l58 -51 0 -93 0 -93 -138 -273 c-182 -359 -335 -694
-462 -1013 -47 -120 -47 -120 -53 -270 -4 -105 -12 -174 -27 -230 -13 -47 -21
-109 -21 -152 1 -75 -18 -177 -71 -398 -27 -112 -37 -137 -72 -184 l-41 -54 0
-122 0 -122 41 -45 c23 -25 54 -64 70 -87 21 -32 43 -50 93 -72 l66 -31 175 4
c96 1 180 -1 187 -5 6 -4 14 -3 18 3 3 5 -12 25 -33 44 -21 19 -51 58 -66 87
l-28 51 98 97 c64 63 139 124 213 172 113 74 113 74 153 154 53 104 143 236
220 320 34 36 73 92 88 124 42 89 138 161 175 131 11 -9 17 -6 28 17 26 48 63
76 92 69 24 -6 28 -1 66 79 44 91 66 113 99 95 14 -8 20 -21 20 -45 0 -19 4
-35 9 -35 5 0 11 -110 13 -252 4 -235 6 -260 31 -353 51 -191 173 -396 253
-424 21 -7 71 -29 111 -47 64 -31 80 -34 162 -34 157 0 266 63 330 192 43 86
40 97 -16 50 -63 -51 -102 -76 -110 -69 -7 8 37 75 82 126 32 35 33 38 12 34
-28 -6 -107 14 -107 26 0 5 6 11 14 14 7 3 23 26 36 51 22 47 22 104 -2 149
-8 15 -2 26 30 55 76 71 112 180 112 345 0 68 4 86 34 145 100 198 242 710
311 1117 34 200 46 225 102 225 24 0 289 -119 362 -163 66 -39 197 -161 247
-228 29 -40 41 -70 59 -157 38 -172 108 -351 182 -463 l24 -37 -9 -158 c-8
-133 -18 -197 -61 -389 -59 -262 -81 -391 -81 -485 l0 -65 -82 -35 c-97 -41
-330 -167 -340 -183 -24 -38 0 -66 56 -67 10 0 51 -15 90 -34 113 -54 196 -68
386 -68 90 1 169 -3 175 -7 27 -22 251 31 359 85 111 56 142 85 150 140 3 25
26 82 50 127 50 94 69 149 91 262 16 87 44 127 97 139 25 6 31 0 76 -66 93
-139 195 -356 195 -416 -1 -58 -51 -102 -119 -102 -27 0 -46 -7 -65 -26 -19
-18 -42 -28 -73 -31 -54 -6 -111 -55 -146 -122 l-20 -40 44 -20 c27 -11 54
-33 67 -54 23 -34 24 -34 112 -40 61 -4 108 -1 146 8 31 8 118 19 193 25 230
18 375 71 495 183 105 99 101 82 106 392 6 365 20 425 161 705 46 91 91 186
101 212 9 25 29 61 45 79 23 28 36 34 81 39 47 4 56 9 76 39 13 19 23 43 23
55 0 12 5 38 11 59 9 32 13 36 34 31 20 -5 27 0 44 34 24 48 75 92 105 92 12
0 39 -9 61 -20 45 -23 136 -26 200 -6 36 11 43 10 74 -11 38 -26 105 -31 133
-9 10 7 30 44 46 82 15 38 34 70 43 72 20 4 37 -35 45 -103 4 -30 11 -55 17
-55 13 0 72 36 119 72 20 15 42 26 50 23 7 -3 24 -26 38 -52 20 -39 34 -51 75
-68 27 -11 63 -35 79 -53 52 -60 97 -76 224 -80 l113 -4 57 -57 c33 -33 82
-69 117 -86 43 -20 92 -59 175 -140 102 -100 120 -113 160 -120 59 -10 94 -28
118 -63 20 -27 73 -49 160 -67 20 -4 32 -13 32 -23 0 -9 14 -40 30 -69 39 -68
96 -103 171 -103 115 -1 326 -95 438 -196 l52 -46 92 4 c61 3 104 11 129 23
l36 18 49 -36 c51 -37 188 -107 210 -107 6 0 38 -22 69 -50 31 -27 64 -50 72
-50 38 0 153 -35 219 -66 40 -19 79 -31 88 -28 17 7 55 -21 55 -41 0 -16 25
-37 33 -29 4 4 -5 20 -18 36 -31 37 -31 48 0 82 31 34 44 30 70 -17 l20 -36
36 102 c35 98 38 102 65 100 16 -1 67 8 114 19 47 11 126 21 175 23 77 1 99 6
150 31 93 46 133 76 150 112 14 28 21 32 55 32 26 0 43 6 52 18 9 12 27 17 63
17 42 0 66 9 155 59 66 37 122 77 150 108 25 26 69 61 99 77 l54 29 -67 -5
c-65 -6 -66 -5 -66 19 0 13 7 45 16 71 14 40 20 47 42 47 15 0 33 4 41 9 11 7
10 12 -5 29 -11 11 -30 22 -44 24 -31 4 -55 46 -47 80 4 13 16 37 28 51 19 26
25 27 110 27 98 0 140 13 178 53 l23 25 -31 64 c-44 90 -49 123 -21 138 17 9
33 9 68 0 26 -6 51 -15 57 -20 5 -4 36 -15 68 -23 56 -15 58 -15 43 2 -9 10
-16 22 -16 27 0 5 -12 32 -26 61 -30 59 -27 79 15 96 l30 13 -17 34 c-19 41
-112 135 -142 145 -14 4 -20 15 -20 36 0 54 15 69 70 69 70 0 98 14 161 80 43
45 68 62 102 72 l45 12 -33 39 c-33 38 -65 112 -65 148 0 24 30 39 74 39 25 0
38 6 46 19 15 29 13 88 -4 94 -29 11 -36 41 -18 77 10 20 12 35 6 37 -72 24
-284 197 -284 232 0 31 77 91 118 91 25 0 84 76 123 157 29 62 30 64 13 98
-19 41 -55 69 -116 91 -76 26 -135 98 -116 140 15 33 -11 60 -77 79 -85 25
-87 28 -76 115 6 42 13 83 16 92 5 12 0 17 -21 20 -15 2 -36 14 -46 29 -18 24
-18 28 -3 105 9 43 30 110 46 148 16 39 27 72 25 74 -3 2 -24 6 -48 9 -57 6
-318 92 -340 111 -10 8 -18 21 -18 28 0 8 -18 23 -39 34 -53 26 -59 51 -27
101 l26 39 -22 0 c-39 1 -104 36 -128 69 -12 18 -24 49 -27 70 l-5 39 -44 -20
c-31 -13 -54 -17 -79 -12 l-35 6 0 57 c0 77 -17 106 -59 104 -18 0 -40 -8 -49
-17 -29 -25 -122 4 -122 39 0 7 11 29 25 49 24 36 24 37 6 55 -28 28 -75 34
-145 21 -60 -11 -66 -11 -115 15 -51 25 -132 97 -163 143 l-16 23 -53 -29
c-30 -17 -71 -33 -92 -36 -47 -9 -124 2 -140 19 -7 7 -42 14 -78 17 -38 2 -82
12 -107 25 l-42 20 -47 -23 c-31 -16 -63 -24 -100 -24 -37 0 -86 -12 -166 -41
-110 -41 -396 -172 -407 -187 -3 -5 -63 -23 -135 -41 -275 -70 -556 -172 -965
-351 -91 -40 -178 -76 -195 -82 -26 -8 -346 -28 -495 -30 -86 -1 -260 26 -463
73 -78 19 -89 24 -103 51 -28 55 -97 120 -194 184 -52 34 -106 72 -120 83 -24
20 -24 22 -6 36 17 13 17 15 -7 39 -20 20 -36 26 -70 26 -37 0 -48 5 -61 26
-23 33 -124 98 -187 119 -40 14 -49 21 -44 34 19 45 18 50 -22 60 -21 5 -72
13 -113 16 -70 7 -79 11 -148 62 -41 30 -99 78 -131 107 -66 61 -139 93 -309
137 -95 24 -122 36 -154 64 -25 23 -48 35 -67 35 -47 0 -91 21 -106 50 -12 24
-24 29 -97 43 -46 9 -114 20 -152 23 -55 6 -83 15 -135 46 -177 103 -388 152
-719 164 -150 5 -187 4 -242 -11 -83 -22 -109 -22 -200 -2 -78 18 -117 18
-385 7z m4242 -1486 c-3 -3 -12 -4 -19 -1 -8 3 -5 6 6 6 11 1 17 -2 13 -5z"/>
<path d="M14005 770 c-3 -5 -18 -10 -33 -10 l-27 0 30 -20 c30 -20 80 -27 88
-12 7 11 -51 54 -58 42z"/>
</g>
</svg>
