<?xml version="1.0" standalone="no"?>
<!DOCTYPE svg PUBLIC "-//W3C//DTD SVG 20010904//EN"
 "http://www.w3.org/TR/2001/REC-SVG-20010904/DTD/svg10.dtd">
<svg version="1.0" xmlns="http://www.w3.org/2000/svg"
 width="1536.000000pt" height="962.000000pt" viewBox="0 0 1536.000000 962.000000"
 preserveAspectRatio="xMidYMid meet">
<metadata>
Created by potrace 1.16, written by Peter Selinger 2001-2019
</metadata>
<g transform="translate(0.000000,962.000000) scale(0.100000,-0.100000)"
fill="#000000" stroke="none">
<path d="M13228 9602 c-20 -10 -62 -41 -94 -69 -33 -28 -70 -56 -83 -63 -14
-7 -88 -16 -165 -20 -172 -10 -320 -29 -626 -81 -478 -80 -604 -117 -1025
-301 -360 -158 -627 -242 -1322 -419 l-211 -54 -174 43 c-311 76 -318 77 -838
92 -257 8 -361 15 -445 30 -198 36 -376 58 -630 80 -404 34 -546 55 -1085 161
-626 123 -815 150 -1240 174 -495 28 -520 32 -885 135 -154 43 -364 101 -467
128 l-187 49 -358 -53 c-1054 -157 -1009 -149 -1219 -219 -318 -107 -834 -311
-1059 -420 -250 -120 -388 -262 -630 -649 -285 -455 -406 -719 -457 -996 -29
-156 -32 -617 -5 -810 34 -240 92 -456 158 -580 59 -112 228 -317 321 -391 58
-46 82 -48 132 -14 20 14 41 25 45 25 28 0 356 -756 446 -1025 77 -230 207
-800 221 -966 9 -99 -11 -160 -124 -379 l-85 -165 12 -250 c13 -275 29 -416
67 -605 34 -167 126 -528 169 -665 34 -109 36 -113 102 -176 109 -105 393
-293 564 -373 122 -58 218 -77 395 -79 147 -2 174 5 174 42 0 10 6 26 14 36
13 18 33 20 218 26 155 5 220 12 276 27 74 20 122 45 122 62 0 6 -15 41 -32
78 -45 92 -133 177 -298 287 -74 49 -153 106 -175 125 -59 54 -117 90 -245
155 -147 75 -183 111 -334 339 l-118 178 16 183 c23 246 45 348 98 454 46 92
221 359 225 345 1 -5 14 -116 28 -247 28 -264 44 -339 111 -518 55 -148 115
-353 149 -514 14 -66 31 -133 37 -149 18 -45 83 -122 141 -165 150 -114 428
-242 586 -271 198 -36 476 -31 527 9 23 18 41 21 126 21 166 0 362 40 408 82
26 24 22 51 -17 117 -58 100 -96 129 -293 224 -334 161 -425 226 -576 413 -93
116 -213 293 -255 376 -38 75 -36 100 17 311 70 277 81 305 205 477 366 509
553 752 604 786 34 22 54 20 575 -66 594 -97 871 -133 1575 -205 455 -47 609
-53 743 -31 142 24 138 26 198 -146 20 -57 89 -215 154 -353 223 -473 256
-569 399 -1155 81 -330 134 -596 171 -852 48 -331 106 -574 176 -741 65 -154
105 -185 374 -285 166 -62 461 -152 499 -152 43 0 52 18 45 89 -7 60 -6 61 18
61 13 0 64 -14 114 -31 68 -24 107 -32 169 -33 73 -1 83 1 117 27 27 21 58 32
115 41 112 19 116 22 110 67 -6 49 -101 243 -159 329 -68 100 -108 120 -343
170 l-120 25 -42 168 c-24 92 -47 193 -53 225 -12 66 -34 790 -33 1087 0 202
8 260 34 260 23 0 160 -291 235 -500 17 -49 55 -193 84 -320 87 -384 167 -637
269 -851 45 -94 110 -184 133 -184 6 0 90 -33 187 -74 227 -96 330 -129 406
-130 l60 -1 3 68 c2 37 6 67 9 67 3 0 48 -13 100 -30 126 -40 222 -42 260 -4
35 35 63 44 138 44 35 0 76 5 90 10 26 10 27 12 23 78 -11 200 -238 418 -470
453 -40 6 -88 13 -107 16 -74 10 -115 82 -172 298 -89 337 -149 757 -149 1041
0 416 117 1240 211 1484 67 174 84 193 721 815 261 255 292 291 523 620 234
332 491 670 569 748 109 111 273 187 451 209 74 9 137 9 326 -4 254 -17 310
-14 449 24 66 18 110 23 200 22 136 0 207 -17 435 -104 225 -86 363 -124 512
-141 97 -11 206 2 262 30 68 35 148 141 170 227 9 33 42 73 167 204 202 210
259 299 240 372 -8 33 -93 137 -258 316 -331 359 -471 569 -603 908 -92 234
-194 375 -444 616 -155 149 -287 260 -405 340 -186 126 -192 133 -205 260 -9
88 -24 130 -63 164 -53 48 -92 55 -150 26z"/>
</g>
</svg>
