<?xml version="1.0" standalone="no"?>
<!DOCTYPE svg PUBLIC "-//W3C//DTD SVG 20010904//EN"
 "http://www.w3.org/TR/2001/REC-SVG-20010904/DTD/svg10.dtd">
<svg version="1.0" xmlns="http://www.w3.org/2000/svg"
 width="1536.000000pt" height="823.000000pt" viewBox="0 0 1536.000000 823.000000"
 preserveAspectRatio="xMidYMid meet">
<metadata>
Created by potrace 1.16, written by Peter Selinger 2001-2019
</metadata>
<g transform="translate(0.000000,823.000000) scale(0.100000,-0.100000)"
fill="#000000" stroke="none">
<path d="M8725 8219 c-148 -5 -1109 -13 -2135 -18 -1821 -9 -1868 -10 -1975
-30 -60 -11 -174 -25 -255 -31 -302 -22 -639 -62 -735 -86 -32 -9 -140 -45
-240 -81 -99 -36 -216 -78 -260 -93 -251 -86 -752 -336 -955 -475 -258 -177
-348 -282 -619 -719 -19 -31 -76 -104 -127 -163 -51 -59 -106 -133 -123 -163
-34 -64 -135 -407 -152 -520 -15 -96 1 -341 31 -491 43 -210 94 -336 215 -529
125 -199 142 -251 170 -525 9 -82 31 -226 50 -319 44 -210 47 -325 12 -376
-34 -50 -209 -134 -492 -235 -333 -118 -450 -193 -516 -332 -42 -88 -47 -152
-21 -263 29 -123 40 -219 52 -448 l10 -203 -75 -149 c-89 -176 -126 -227 -272
-382 -122 -129 -154 -181 -229 -374 -53 -136 -84 -237 -84 -276 0 -70 42 -104
115 -95 36 5 47 3 52 -8 3 -9 -16 -59 -42 -113 -91 -186 -100 -245 -48 -294
33 -31 98 -30 143 2 18 13 89 74 157 136 67 62 185 159 260 215 231 173 314
274 363 443 15 51 41 121 58 157 19 38 37 100 46 153 28 161 220 535 321 624
24 21 108 73 187 117 230 126 300 170 475 301 91 68 193 140 227 159 69 38
196 89 204 80 8 -7 -24 -116 -143 -499 l-106 -339 16 -131 c23 -188 29 -213
86 -338 28 -62 80 -196 116 -298 122 -347 170 -530 192 -727 5 -50 17 -105 25
-122 9 -17 42 -45 77 -67 34 -21 100 -71 147 -112 47 -40 97 -78 111 -84 14
-6 91 -28 171 -50 127 -35 159 -40 255 -40 94 -1 122 3 190 26 63 22 91 26
131 21 30 -4 61 -1 76 6 39 17 71 82 71 143 0 92 -54 162 -218 281 -242 176
-339 275 -369 376 -23 77 -49 285 -41 332 4 23 6 89 5 147 -2 124 15 330 35
416 8 33 32 101 53 150 62 141 157 398 249 674 47 140 103 296 124 345 38 89
40 92 217 266 180 177 278 253 442 342 l65 35 140 -54 c161 -62 279 -96 415
-119 52 -9 138 -24 190 -35 116 -23 359 -46 660 -61 239 -12 413 -6 800 27
l195 17 75 -44 c41 -24 96 -65 121 -90 60 -59 85 -135 99 -300 12 -136 5 -198
-40 -345 -46 -147 -126 -441 -139 -504 -21 -113 -23 -186 -6 -335 15 -123 17
-204 12 -450 -6 -331 -16 -418 -72 -642 -30 -119 -33 -142 -24 -177 24 -89 86
-176 143 -200 17 -7 59 -38 92 -68 79 -71 146 -109 264 -149 87 -30 106 -33
220 -34 147 0 180 11 274 94 33 28 71 54 85 57 81 18 105 28 134 54 28 25 32
34 32 82 0 72 -17 96 -124 167 -106 71 -169 141 -217 237 -34 69 -36 78 -46
230 -5 88 -8 305 -6 484 4 318 5 327 31 413 32 105 82 207 189 384 110 184
166 308 238 523 63 190 130 337 293 640 104 194 106 197 138 210 22 10 41 6
119 -25 103 -40 215 -54 435 -55 161 0 169 -4 293 -128 59 -59 218 -200 353
-314 325 -273 385 -330 497 -473 52 -66 154 -178 227 -250 114 -113 145 -151
232 -285 165 -254 210 -314 337 -451 161 -174 225 -261 293 -399 32 -63 81
-150 110 -195 40 -61 56 -97 69 -155 50 -236 129 -367 262 -434 110 -56 334
-76 412 -36 40 21 44 21 110 6 80 -18 146 -20 221 -6 65 12 73 20 72 64 -1 40
-41 101 -108 166 -26 25 -58 67 -72 94 -30 60 -162 272 -211 341 -20 28 -86
115 -148 195 -132 172 -206 282 -299 445 -37 66 -115 191 -172 277 -123 184
-184 314 -278 588 -82 241 -153 422 -203 520 -21 41 -72 140 -114 220 -102
198 -121 269 -126 478 l-4 164 155 -4 154 -3 104 -52 c57 -28 135 -75 174
-104 38 -29 129 -88 203 -131 169 -98 194 -118 300 -242 110 -128 430 -455
497 -506 27 -21 142 -89 255 -150 113 -62 273 -156 355 -210 412 -267 424
-274 739 -402 122 -49 300 -130 396 -181 96 -50 223 -115 281 -144 l107 -53 7
-62 c8 -72 21 -102 62 -141 25 -23 43 -29 119 -38 102 -13 206 -7 255 14 58
25 218 155 225 184 4 16 -5 68 -25 138 -17 62 -42 188 -56 280 -13 92 -42 231
-64 309 -22 78 -53 191 -70 251 -61 226 -98 319 -208 531 -124 238 -168 305
-404 626 -180 244 -190 263 -253 479 -40 136 -56 214 -91 449 -37 247 -69 383
-130 550 -59 164 -98 247 -147 311 -210 273 -283 366 -345 436 -123 138 -904
917 -973 970 -36 27 -127 91 -202 142 -134 90 -240 167 -448 327 -163 126
-289 204 -490 304 -102 51 -250 127 -330 170 -156 85 -199 103 -358 149 -152
45 -294 70 -465 81 -215 14 -1251 20 -1572 9z"/>
</g>
</svg>
