<?xml version="1.0" standalone="no"?>
<!DOCTYPE svg PUBLIC "-//W3C//DTD SVG 20010904//EN"
 "http://www.w3.org/TR/2001/REC-SVG-20010904/DTD/svg10.dtd">
<svg version="1.0" xmlns="http://www.w3.org/2000/svg"
 width="1810.000000pt" height="889.000000pt" viewBox="0 0 1810.000000 889.000000"
 preserveAspectRatio="xMidYMid meet">
<metadata>
Created by potrace 1.16, written by Peter Selinger 2001-2019
</metadata>
<g transform="translate(0.000000,889.000000) scale(0.100000,-0.100000)"
fill="#000000" stroke="none">
<path d="M3602 8878 c-14 -14 -16 -44 -3 -52 5 -3 11 9 14 27 6 38 4 40 -11
25z"/>
<path d="M11742 8399 c-35 -4 -78 -12 -95 -18 -55 -16 -207 -40 -332 -51 -158
-14 -432 -55 -542 -81 -91 -21 -215 -45 -553 -104 -107 -19 -260 -49 -340 -66
-306 -65 -418 -88 -500 -104 -76 -15 -192 -47 -535 -150 -60 -18 -150 -40
-200 -49 -49 -9 -133 -30 -185 -46 -208 -63 -402 -111 -548 -135 -84 -14 -221
-41 -305 -61 -191 -44 -354 -78 -477 -99 -99 -17 -443 -103 -520 -130 -44 -16
-368 -101 -625 -165 -71 -18 -143 -32 -160 -31 -16 1 -88 15 -160 32 -95 23
-171 33 -285 40 -85 4 -182 13 -215 19 -86 14 -190 12 -285 -6 -162 -30 -536
-126 -601 -153 l-67 -28 -288 8 c-314 10 -580 29 -793 58 -75 11 -199 27 -276
36 -257 31 -434 56 -544 78 l-109 22 -38 54 c-20 30 -50 84 -67 120 -48 108
-149 235 -210 267 -37 20 -117 20 -155 0 -35 -18 -46 -31 -107 -136 -25 -41
-60 -92 -78 -114 l-32 -38 -70 22 c-39 13 -92 31 -120 41 -99 36 -143 41 -184
22 -68 -34 -135 -189 -186 -431 l-21 -103 -50 -26 c-81 -43 -108 -65 -166
-133 -149 -177 -270 -380 -328 -550 -26 -75 -34 -120 -40 -210 -8 -131 -16
-157 -69 -220 -20 -25 -52 -67 -71 -95 -18 -27 -68 -87 -111 -131 -79 -84 -99
-122 -99 -192 0 -52 70 -163 131 -209 76 -57 96 -80 153 -173 63 -103 113
-142 209 -160 71 -13 132 -5 205 26 20 9 66 26 102 39 36 12 114 48 174 79 61
31 118 56 127 56 10 0 21 4 24 10 11 18 106 39 273 60 92 11 201 24 243 30 76
9 165 41 217 78 15 11 74 46 132 78 l105 59 135 0 c104 0 142 -4 165 -16 17
-9 91 -36 165 -60 98 -31 202 -77 380 -167 326 -165 348 -181 554 -406 54 -59
131 -133 170 -164 216 -171 375 -334 578 -588 31 -40 96 -116 144 -170 168
-192 300 -371 406 -549 83 -139 116 -421 88 -745 -22 -255 -29 -487 -30 -943
0 -516 -5 -567 -61 -678 -27 -55 -85 -109 -116 -109 -28 0 -130 -53 -163 -85
-23 -21 -49 -36 -75 -40 -101 -17 -247 -87 -316 -152 -65 -61 -113 -156 -104
-206 12 -64 65 -140 115 -164 171 -84 257 -99 352 -63 29 11 64 20 78 20 14 0
57 15 96 34 39 19 98 44 131 55 34 11 77 30 96 41 23 14 44 19 60 15 36 -9
127 19 227 71 75 38 123 73 274 196 62 50 140 223 183 406 19 81 62 255 95
387 33 132 71 287 83 345 13 58 39 173 59 255 19 83 41 184 48 225 11 70 12
73 19 40 21 -96 109 -856 109 -933 0 -61 -78 -240 -158 -361 -40 -60 -72 -115
-72 -122 0 -7 -25 -41 -56 -76 -79 -90 -105 -138 -111 -205 -5 -54 -2 -64 36
-133 22 -41 59 -111 81 -156 52 -107 69 -118 187 -118 80 -1 95 2 123 22 31
23 32 23 67 7 68 -33 201 4 290 79 20 17 43 26 64 26 53 0 119 39 196 116 162
162 200 338 137 634 -28 130 -29 144 -27 381 2 259 18 405 78 704 31 157 73
452 83 585 4 58 5 294 2 525 -3 231 -3 438 1 461 13 68 80 194 137 255 105
114 479 325 712 402 248 83 342 108 460 126 69 11 172 27 230 36 249 39 425
65 570 85 85 12 205 32 265 45 61 13 139 29 175 35 126 22 466 112 550 146 47
19 123 56 170 83 146 84 209 112 291 128 l79 16 59 -27 c32 -14 64 -26 70 -26
37 0 193 -78 291 -145 63 -43 147 -99 185 -126 139 -94 300 -293 468 -579 75
-128 189 -415 226 -570 16 -69 43 -159 59 -200 16 -41 51 -133 77 -203 27 -71
67 -159 90 -196 34 -56 125 -264 125 -287 0 -4 38 -84 84 -178 176 -362 216
-462 216 -543 0 -49 -2 -54 -119 -310 -28 -61 -60 -146 -72 -190 -28 -101 -52
-148 -102 -200 -39 -40 -45 -43 -97 -43 -86 -1 -168 -23 -270 -73 -84 -41 -99
-52 -130 -99 -56 -86 -79 -154 -80 -230 0 -176 71 -328 177 -378 115 -54 208
-65 242 -29 12 13 21 17 26 10 3 -6 30 -23 58 -37 47 -24 59 -26 143 -22 98 5
83 0 274 100 145 76 267 167 306 230 15 23 46 62 69 87 48 52 74 100 111 204
14 39 52 126 84 192 31 66 63 138 70 160 7 22 29 72 48 110 19 39 50 113 68
165 18 52 46 131 62 175 46 123 150 452 168 530 20 88 12 178 -23 260 -53 125
-111 340 -132 491 -22 154 -27 209 -61 649 -11 143 -29 337 -40 430 -52 451
-50 570 9 890 33 177 110 423 171 545 21 42 96 150 171 245 240 307 283 390
282 540 -1 85 -4 100 -63 260 -95 262 -110 316 -110 406 0 75 1 79 23 79 28 0
84 -34 233 -141 150 -109 314 -274 509 -514 80 -99 172 -211 204 -250 31 -38
79 -99 106 -135 27 -36 97 -115 155 -176 58 -61 170 -182 250 -269 252 -274
282 -305 385 -385 55 -43 152 -119 215 -169 168 -132 482 -315 648 -377 34
-13 117 -35 185 -48 271 -54 386 -46 731 50 113 32 179 56 228 85 94 55 120
65 232 88 111 22 134 35 176 93 43 59 42 111 -2 138 -41 25 -109 45 -218 64
-105 18 -417 6 -635 -25 -209 -29 -428 -21 -551 21 -81 28 -212 101 -324 179
-52 36 -120 83 -150 103 -99 67 -409 398 -548 587 -47 64 -113 150 -147 191
-34 41 -101 131 -149 200 -222 319 -304 413 -711 825 -328 331 -548 499 -835
637 -58 28 -260 126 -450 218 -190 92 -408 191 -485 220 -174 65 -430 130
-685 174 -214 37 -341 47 -438 35z"/>
</g>
</svg>
