<?xml version="1.0" standalone="no"?>
<!DOCTYPE svg PUBLIC "-//W3C//DTD SVG 20010904//EN"
 "http://www.w3.org/TR/2001/REC-SVG-20010904/DTD/svg10.dtd">
<svg version="1.0" xmlns="http://www.w3.org/2000/svg"
 width="1536.000000pt" height="1206.000000pt" viewBox="0 0 1536.000000 1206.000000"
 preserveAspectRatio="xMidYMid meet">
<metadata>
Created by potrace 1.16, written by Peter Selinger 2001-2019
</metadata>
<g transform="translate(0.000000,1206.000000) scale(0.100000,-0.100000)"
fill="#000000" stroke="none">
<path d="M4939 12027 c-193 -85 -390 -206 -532 -329 -94 -81 -258 -206 -302
-231 -16 -9 -73 -35 -125 -58 -52 -22 -128 -58 -168 -80 -157 -86 -360 -265
-478 -424 -33 -44 -123 -144 -200 -223 -123 -127 -160 -158 -321 -268 -100
-69 -229 -162 -287 -207 -58 -45 -138 -100 -178 -121 -40 -21 -142 -79 -226
-129 -84 -49 -183 -102 -220 -117 -73 -30 -446 -205 -527 -247 -27 -15 -104
-61 -170 -103 -66 -42 -138 -87 -160 -100 -22 -13 -89 -55 -148 -93 -106 -67
-327 -179 -477 -240 -65 -26 -93 -31 -205 -38 -72 -4 -138 -10 -148 -14 -25
-10 -61 -136 -61 -215 -1 -100 21 -337 39 -424 26 -124 63 -245 101 -323 42
-88 77 -112 209 -144 76 -18 108 -20 199 -15 l109 6 73 -35 c52 -25 101 -61
166 -122 133 -124 219 -191 420 -323 216 -144 434 -253 777 -390 262 -105 420
-152 628 -187 149 -25 649 -25 830 0 143 20 187 21 216 6 60 -32 202 -142 282
-220 114 -111 298 -262 451 -370 66 -46 157 -120 204 -164 79 -76 206 -176
405 -320 46 -33 110 -85 142 -116 33 -32 94 -74 142 -99 46 -24 132 -77 190
-118 58 -42 147 -104 196 -138 50 -35 137 -102 194 -150 57 -47 176 -140 263
-206 217 -164 286 -235 386 -392 48 -76 84 -144 87 -165 3 -20 10 -61 15 -92
24 -135 53 -975 48 -1424 -2 -200 2 -391 12 -540 19 -290 19 -361 -3 -620 -27
-312 -42 -398 -112 -630 -59 -195 -89 -248 -213 -373 -59 -59 -147 -141 -197
-182 -116 -97 -359 -333 -384 -374 -10 -17 -22 -46 -26 -64 -6 -31 -5 -33 42
-54 62 -29 233 -34 598 -19 218 8 270 13 319 30 106 37 116 48 246 256 66 107
127 208 134 225 l13 31 80 -60 c78 -58 123 -75 138 -51 13 22 34 9 37 -22 2
-26 11 -37 38 -51 30 -16 52 -18 160 -13 258 10 613 81 684 137 35 27 59 76
85 174 12 44 27 95 33 113 l10 34 42 -41 c23 -23 51 -41 63 -41 60 0 106 111
124 298 13 144 6 294 -28 562 -24 194 -25 222 -20 525 6 338 37 776 63 904 32
157 151 388 369 716 117 176 220 361 294 526 l43 96 437 6 c484 7 558 12 811
62 327 64 568 85 770 67 133 -12 144 -20 155 -104 3 -29 22 -129 40 -223 18
-93 36 -190 40 -215 9 -70 83 -241 193 -447 62 -114 106 -209 113 -242 8 -40
8 -89 0 -198 -8 -94 -10 -233 -5 -401 7 -270 1 -363 -36 -538 -43 -206 -120
-427 -175 -499 -44 -56 -72 -112 -102 -200 -20 -61 -34 -81 -102 -150 -156
-158 -311 -396 -327 -500 -7 -51 8 -100 37 -115 22 -13 163 -12 209 0 19 5 67
18 105 30 39 11 146 34 239 51 187 33 316 64 359 86 44 22 107 83 127 123 15
29 50 185 50 223 0 4 16 5 35 1 31 -5 36 -3 45 21 6 15 10 127 10 263 0 251
11 416 36 522 19 85 107 304 204 510 85 180 112 256 164 472 19 78 49 188 66
243 17 55 36 139 42 186 l10 87 -41 96 c-58 137 -65 176 -66 386 0 181 14 286
35 264 5 -5 12 -70 15 -144 7 -134 16 -185 75 -410 54 -204 51 -284 -31 -793
l-30 -189 17 -151 c19 -177 15 -521 -10 -722 -8 -66 -20 -172 -26 -235 -17
-179 -29 -229 -70 -310 -21 -41 -54 -109 -73 -150 -24 -50 -63 -107 -120 -173
-150 -173 -223 -289 -213 -342 13 -68 76 -94 232 -95 141 0 239 18 434 81 186
61 219 79 295 161 92 99 107 141 118 338 7 129 13 175 29 210 12 26 23 82 28
135 9 104 57 350 100 510 16 61 41 175 55 254 25 146 101 460 113 473 4 3 21
8 37 10 29 3 31 6 42 73 40 221 59 303 99 420 51 151 60 219 45 330 -37 266
-59 679 -42 795 29 198 57 275 290 783 369 807 479 1033 628 1292 194 339 216
391 263 624 36 179 55 354 75 706 19 333 19 331 53 347 26 13 27 17 25 78 -2
77 -41 217 -87 316 l-34 71 32 14 c28 13 31 18 30 59 0 82 -103 256 -271 464
-153 188 -149 182 -128 206 27 29 21 71 -21 151 -30 58 -78 114 -243 286 -268
279 -258 267 -240 301 9 15 14 35 12 44 -5 19 -211 183 -333 265 -41 28 -129
81 -195 118 -150 84 -263 156 -338 213 -51 38 -56 46 -42 56 11 8 15 23 13 41
-3 32 10 23 -238 162 -246 139 -450 232 -762 347 -339 125 -632 203 -1068 285
-150 28 -536 21 -1005 -19 -126 -11 -328 -26 -448 -35 l-217 -15 -127 -51
c-128 -51 -977 -335 -1088 -364 -103 -26 -232 -36 -382 -29 -77 4 -146 10
-152 14 -8 5 -8 14 3 35 18 34 11 55 -18 55 -13 0 -87 -13 -164 -30 -78 -16
-146 -30 -152 -30 -5 0 2 16 15 36 65 96 3 133 -267 156 -76 6 -138 15 -138
18 0 4 11 17 25 30 37 35 32 66 -16 111 -54 50 -75 56 -259 69 -85 6 -182 15
-215 18 l-60 7 38 23 c44 28 67 58 67 89 0 31 -11 33 -279 58 -84 8 -156 17
-160 20 -3 3 -4 21 -2 40 3 37 -14 51 -96 75 -24 7 -43 15 -43 18 0 2 9 15 20
29 26 34 25 55 -5 83 -22 21 -31 22 -97 17 -40 -3 -137 -21 -215 -41 -171 -43
-180 -44 -148 -11 15 14 25 36 25 53 0 34 -36 72 -70 72 -12 0 -106 -27 -207
-60 -166 -54 -213 -64 -199 -41 3 4 -2 17 -10 29 -22 32 -74 29 -243 -14 -179
-45 -192 -40 -72 26 48 26 66 64 39 81 -29 19 -103 9 -179 -24z m2886 -9664
c9 -44 31 -111 68 -208 58 -149 147 -584 147 -716 0 -57 -7 -85 -44 -176 -24
-59 -50 -128 -57 -153 -7 -25 -20 -56 -30 -70 -9 -14 -27 -45 -39 -70 -12 -25
-48 -76 -78 -115 -63 -78 -271 -295 -283 -295 -5 0 7 34 26 76 76 167 79 211
34 524 -49 337 -42 517 31 788 24 88 192 442 209 442 6 0 13 -12 16 -27z"/>
</g>
</svg>
