<?xml version="1.0" standalone="no"?>
<!DOCTYPE svg PUBLIC "-//W3C//DTD SVG 20010904//EN"
 "http://www.w3.org/TR/2001/REC-SVG-20010904/DTD/svg10.dtd">
<svg version="1.0" xmlns="http://www.w3.org/2000/svg"
 width="2159.000000pt" height="939.000000pt" viewBox="0 0 2159.000000 939.000000"
 preserveAspectRatio="xMidYMid meet">
<metadata>
Created by potrace 1.16, written by Peter Selinger 2001-2019
</metadata>
<g transform="translate(0.000000,939.000000) scale(0.100000,-0.100000)"
fill="#000000" stroke="none">
<path d="M8780 9369 c-662 -27 -1408 -88 -1885 -155 -848 -117 -1552 -313
-2104 -584 -507 -249 -882 -537 -1376 -1060 -509 -538 -626 -629 -1241 -963
-250 -136 -308 -164 -489 -237 -66 -27 -145 -62 -175 -79 -42 -24 -68 -31
-109 -31 -120 0 -201 72 -310 276 -115 218 -163 269 -313 338 -232 108 -397
97 -521 -33 -106 -110 -147 -233 -196 -576 -51 -354 -56 -413 -55 -635 1 -466
82 -648 325 -730 90 -31 234 -39 294 -15 87 33 93 9 36 -133 -116 -290 -194
-645 -236 -1087 -13 -140 -25 -412 -38 -910 -5 -171 -23 -233 -132 -440 -101
-193 -137 -300 -143 -435 -5 -119 9 -194 57 -295 83 -179 223 -247 596 -290
175 -20 222 -32 415 -107 279 -109 354 -110 550 -12 187 93 348 222 499 399
203 237 272 289 603 461 123 64 255 137 293 161 48 31 138 114 286 265 l215
219 13 -54 c34 -151 167 -244 369 -255 139 -7 254 12 439 74 279 93 362 103
487 59 85 -30 246 -125 280 -166 24 -28 25 -32 12 -57 -16 -30 -79 -80 -176
-137 -94 -57 -158 -102 -542 -383 -563 -413 -862 -651 -1266 -1010 -349 -311
-392 -359 -392 -434 0 -45 30 -91 73 -112 66 -31 145 -38 342 -33 196 5 281
17 453 63 52 14 104 23 116 20 13 -3 54 -36 92 -74 53 -53 82 -73 124 -87 82
-28 177 -25 279 9 97 33 135 32 234 -8 59 -23 78 -26 164 -24 86 3 103 0 135
-19 50 -29 132 -53 183 -53 62 0 184 34 262 73 85 43 190 121 353 261 213 183
340 258 712 422 239 105 352 164 493 259 288 192 503 409 643 648 60 102 89
127 152 127 27 0 79 -7 117 -16 89 -21 252 -21 373 0 52 9 183 37 290 61 235
53 522 101 925 155 165 22 446 61 625 85 502 69 838 111 1285 160 570 63 641
75 1070 180 143 35 307 73 365 84 278 52 652 74 1025 60 127 -4 379 -6 560 -2
312 5 336 4 435 -16 216 -45 454 -177 545 -301 79 -108 83 -156 36 -452 -36
-229 -55 -288 -118 -358 -77 -85 -173 -121 -468 -175 -139 -25 -214 -66 -251
-137 -16 -32 -18 -81 -4 -108 15 -28 86 -66 160 -86 97 -26 289 -24 404 4 109
27 227 82 331 153 44 30 85 58 92 62 7 5 -3 -21 -23 -57 -63 -116 -58 -218 14
-252 32 -15 50 -16 162 -6 196 16 226 32 468 241 137 119 192 180 230 256 34
67 52 182 52 325 0 225 56 854 79 898 45 84 239 69 751 -58 219 -54 334 -75
580 -104 275 -33 587 -59 1070 -91 853 -57 1125 -82 1625 -155 110 -16 259
-34 330 -40 72 -6 218 -21 325 -32 214 -22 290 -20 357 13 77 37 126 117 97
158 -30 42 -388 170 -834 296 -853 242 -1936 514 -2585 650 -790 165 -1184
310 -1416 523 -123 114 -193 250 -224 441 -36 216 -4 417 105 653 154 333 187
427 214 611 78 521 -152 1153 -623 1717 -531 635 -1315 1163 -2313 1556 -1012
399 -2171 618 -3613 684 -253 11 -1217 11 -1505 -1z"/>
</g>
</svg>
