<?xml version="1.0" standalone="no"?>
<!DOCTYPE svg PUBLIC "-//W3C//DTD SVG 20010904//EN"
 "http://www.w3.org/TR/2001/REC-SVG-20010904/DTD/svg10.dtd">
<svg version="1.0" xmlns="http://www.w3.org/2000/svg"
 width="2564.000000pt" height="1401.000000pt" viewBox="0 0 2564.000000 1401.000000"
 preserveAspectRatio="xMidYMid meet">
<metadata>
Created by potrace 1.16, written by Peter Selinger 2001-2019
</metadata>
<g transform="translate(0.000000,1401.000000) scale(0.100000,-0.100000)"
fill="#000000" stroke="none">
<path d="M4488 13987 c-141 -48 -279 -178 -353 -332 -76 -155 -122 -354 -110
-466 l7 -55 -149 -28 c-926 -175 -934 -176 -1338 -206 -506 -38 -826 -91
-1780 -300 -247 -54 -468 -101 -489 -105 -86 -15 -144 -45 -195 -101 -78 -85
-102 -201 -65 -324 23 -77 55 -123 166 -236 l98 -101 -21 -19 c-36 -32 -62
-95 -62 -149 0 -54 44 -213 70 -252 23 -34 54 -48 173 -73 58 -12 152 -33 209
-46 95 -23 115 -25 260 -19 140 6 171 4 303 -19 225 -40 270 -45 494 -56 295
-15 335 -27 529 -150 50 -31 113 -69 142 -83 71 -36 258 -91 378 -111 158 -27
194 -36 298 -78 55 -21 246 -83 425 -138 596 -181 638 -198 1091 -443 264
-142 339 -176 552 -252 271 -97 327 -129 547 -313 237 -200 328 -249 524 -286
152 -29 209 -74 229 -179 14 -78 -1 -183 -56 -388 -66 -246 -130 -397 -299
-702 -98 -176 -250 -480 -316 -632 -29 -66 -128 -307 -220 -535 -93 -228 -192
-471 -220 -540 -97 -235 -155 -436 -182 -625 -19 -133 -16 -455 5 -595 49
-316 150 -615 297 -873 82 -145 113 -210 150 -312 18 -49 45 -108 59 -130 75
-113 337 -254 550 -296 59 -11 62 -11 97 16 53 40 61 66 38 117 -26 58 -85
135 -189 248 -218 236 -288 416 -287 735 0 133 21 372 38 442 6 22 9 20 26
-29 46 -128 59 -173 98 -348 51 -220 59 -240 101 -240 17 0 39 5 50 10 10 6
19 9 19 8 5 -157 24 -398 36 -454 47 -232 209 -555 384 -769 76 -93 201 -210
275 -260 33 -22 96 -54 140 -72 141 -58 249 -41 311 48 42 61 41 99 -2 224
l-39 110 1 190 c1 213 17 341 85 673 74 364 210 845 229 811 5 -8 13 -135 20
-283 13 -334 31 -431 97 -546 93 -162 380 -477 505 -552 93 -57 150 -49 218
28 64 74 75 113 75 269 -1 160 -11 221 -86 483 -80 283 -84 311 -83 537 2 545
102 672 497 637 183 -17 303 -15 368 4 30 9 104 38 166 65 152 68 226 82 383
76 69 -3 177 -15 240 -27 258 -46 341 -39 615 57 337 117 749 253 785 259 51
8 54 1 82 -187 18 -126 22 -197 23 -394 0 -273 -10 -384 -65 -710 -91 -539
-189 -960 -301 -1300 -78 -235 -157 -408 -297 -648 -258 -441 -312 -584 -275
-726 23 -90 86 -177 154 -212 79 -40 118 -23 218 95 78 92 123 126 165 126 74
0 96 -44 96 -187 0 -136 14 -224 46 -289 27 -58 92 -122 152 -153 70 -36 213
-73 287 -74 107 -3 160 17 226 82 68 68 95 135 109 263 5 50 11 93 14 95 12
12 37 -65 55 -168 22 -123 37 -153 92 -182 49 -26 198 -18 297 16 79 27 334
176 393 229 135 121 232 330 303 648 51 235 63 362 76 860 10 364 18 444 70
690 28 134 32 173 45 504 16 397 38 702 60 844 23 140 102 488 130 572 14 40
32 82 42 92 42 47 112 7 270 -155 281 -290 496 -602 573 -835 59 -180 75 -377
60 -741 -19 -466 -40 -680 -86 -891 -78 -354 -216 -619 -439 -845 -125 -127
-222 -204 -600 -476 -587 -423 -722 -510 -1145 -740 -262 -142 -304 -169 -464
-298 -127 -102 -190 -172 -201 -222 -14 -64 31 -114 124 -139 24 -6 54 -22 67
-35 22 -22 23 -28 17 -107 -7 -96 3 -123 44 -132 43 -9 429 59 534 94 109 36
202 88 279 158 74 66 88 72 164 71 87 -1 136 23 238 119 57 53 83 71 91 63 15
-15 -59 -159 -127 -246 -148 -187 -161 -268 -48 -316 25 -11 67 -40 94 -65 48
-45 62 -49 143 -44 53 3 175 42 305 97 198 85 370 189 495 302 109 99 153 128
237 157 39 13 92 37 117 53 66 41 84 45 114 21 31 -25 39 -49 72 -208 28 -140
54 -207 83 -216 54 -18 267 107 367 216 74 80 115 144 172 271 79 175 103 205
253 325 52 41 152 130 221 197 73 71 211 185 328 274 271 205 363 282 512 430
238 239 390 461 584 856 146 298 209 472 336 928 93 332 142 480 204 613 65
140 104 199 214 325 115 131 144 183 168 294 9 44 17 81 18 82 0 1 47 9 104
18 148 24 228 53 441 160 187 95 273 150 360 231 l46 43 84 -187 c290 -647
587 -1144 898 -1503 384 -444 819 -753 1400 -995 800 -334 1711 -454 2710
-359 476 46 1016 172 1279 300 191 93 330 245 321 353 l-3 37 -270 7 c-148 4
-466 12 -705 18 -900 22 -1320 71 -1820 211 -751 211 -1438 629 -1818 1107
-161 202 -238 338 -624 1102 -340 671 -469 950 -562 1220 l-33 95 42 130 c113
342 178 712 225 1275 61 729 27 1029 -161 1420 -130 269 -294 539 -567 935
-266 387 -348 487 -480 583 -35 26 -102 92 -149 147 -719 844 -1562 1449
-2599 1863 -793 317 -1591 492 -2594 571 -1526 121 -2891 151 -3840 86 -943
-65 -1737 -219 -2260 -438 -58 -24 -174 -65 -259 -91 -85 -26 -211 -69 -281
-96 -154 -59 -228 -74 -319 -68 -93 7 -141 36 -267 163 -112 113 -160 146
-249 170 -155 41 -456 3 -834 -106 -57 -17 -107 -27 -111 -22 -4 4 -35 68 -68
141 -89 196 -138 278 -217 358 -58 59 -80 75 -124 88 -73 21 -113 20 -193 -7z"/>
</g>
</svg>
