<?xml version="1.0" standalone="no"?>
<!DOCTYPE svg PUBLIC "-//W3C//DTD SVG 20010904//EN"
 "http://www.w3.org/TR/2001/REC-SVG-20010904/DTD/svg10.dtd">
<svg version="1.0" xmlns="http://www.w3.org/2000/svg"
 width="2109.000000pt" height="753.000000pt" viewBox="0 0 2109.000000 753.000000"
 preserveAspectRatio="xMidYMid meet">
<metadata>
Created by potrace 1.16, written by Peter Selinger 2001-2019
</metadata>
<g transform="translate(0.000000,753.000000) scale(0.100000,-0.100000)"
fill="#000000" stroke="none">
<path d="M9707 7505 c-46 -24 -49 -24 -73 -8 -33 21 -162 29 -234 14 -30 -7
-80 -22 -110 -34 l-55 -23 -25 28 c-20 22 -36 28 -82 32 -85 6 -242 -34 -322
-83 l-63 -38 -25 31 -25 30 -114 -17 -114 -17 -48 -50 c-46 -47 -50 -49 -70
-35 -12 8 -28 15 -37 15 -20 0 -171 -60 -244 -97 l-59 -30 -24 25 c-22 21 -30
24 -71 18 -50 -7 -111 -34 -206 -91 -67 -40 -66 -40 -66 -21 0 8 -10 27 -23
41 -29 35 -87 42 -147 20 -25 -9 -68 -25 -96 -35 -28 -10 -68 -27 -90 -38 -30
-15 -44 -18 -59 -10 -47 27 -88 27 -163 2 -96 -32 -166 -68 -189 -97 -16 -20
-21 -21 -43 -10 -40 20 -89 15 -175 -20 -65 -26 -84 -39 -105 -70 -21 -34 -28
-38 -55 -34 -68 10 -270 -59 -293 -100 -9 -15 -14 -15 -37 -5 -35 16 -78 15
-121 -3 -51 -21 -153 -88 -153 -101 -1 -6 -11 -20 -23 -31 -22 -20 -29 -20
-133 -12 -123 10 -192 3 -344 -37 -191 -51 -370 -131 -508 -226 -40 -28 -121
-72 -181 -97 -123 -54 -447 -232 -602 -331 -58 -37 -121 -75 -140 -85 -19 -10
-83 -51 -143 -92 l-107 -74 0 53 c0 65 -40 229 -70 289 -48 95 -104 160 -204
239 -109 86 -161 110 -241 110 -41 0 -60 -6 -91 -29 -52 -38 -196 -188 -219
-228 -11 -18 -22 -33 -25 -33 -3 0 -21 30 -39 68 -56 115 -198 318 -254 365
-62 52 -201 159 -264 204 -25 17 -95 48 -156 68 -98 33 -120 37 -190 33 -117
-5 -123 -17 -139 -312 -13 -231 -2 -424 32 -546 48 -170 195 -408 302 -488 76
-57 170 -106 287 -151 l101 -38 -92 -69 c-51 -38 -124 -94 -163 -125 -38 -30
-106 -75 -150 -99 -44 -23 -100 -57 -125 -75 -25 -18 -87 -55 -137 -83 -189
-103 -462 -346 -565 -502 -31 -47 -74 -123 -95 -170 -22 -47 -66 -128 -98
-180 -32 -52 -99 -162 -149 -245 -51 -82 -132 -202 -181 -267 -50 -64 -135
-179 -189 -255 -55 -76 -147 -196 -205 -266 -162 -197 -176 -214 -258 -326
-114 -158 -125 -182 -121 -267 4 -83 30 -130 89 -164 39 -21 52 -23 244 -40
66 -6 171 -20 233 -32 101 -19 121 -20 185 -8 86 15 143 38 207 85 26 19 51
35 56 35 4 0 67 29 138 64 72 36 151 69 176 75 116 26 280 53 378 61 152 14
200 25 349 86 149 60 200 90 493 283 163 108 222 141 287 162 45 15 116 46
156 68 41 23 77 41 79 41 3 0 37 -64 76 -142 49 -98 95 -172 145 -234 204
-256 359 -392 653 -576 33 -22 45 -37 64 -90 34 -96 286 -579 365 -704 45 -69
304 -340 366 -382 28 -19 67 -40 86 -49 39 -16 83 -10 83 10 0 7 -30 55 -68
107 -86 121 -170 258 -188 307 -15 44 -18 99 -5 107 5 3 47 -40 92 -96 128
-157 194 -223 258 -257 63 -33 99 -39 120 -19 11 11 12 -1 6 -62 -4 -41 -14
-111 -22 -155 -8 -44 -21 -118 -28 -164 -10 -59 -21 -91 -36 -108 -31 -32
-117 -73 -154 -73 -53 0 -124 -27 -185 -69 -67 -47 -93 -58 -178 -77 -64 -13
-103 -37 -181 -107 -43 -38 -81 -92 -81 -114 0 -35 120 -65 373 -93 114 -13
122 -12 193 8 106 31 149 29 232 -13 87 -45 147 -52 232 -31 83 21 129 58 156
126 18 46 27 56 74 79 65 32 76 48 94 141 17 88 51 183 71 200 31 26 75 120
123 266 33 99 64 172 91 214 45 70 75 155 91 265 6 39 16 88 22 110 6 22 14
98 17 170 l6 129 135 36 c236 62 321 104 519 254 111 84 150 120 175 159 16
24 24 27 75 27 93 0 231 47 282 96 21 20 30 23 51 15 44 -16 209 -42 309 -48
111 -7 157 5 193 48 l25 29 102 -30 c78 -23 121 -30 186 -30 90 0 130 12 179
53 l30 26 45 -29 c50 -33 169 -60 263 -60 69 0 133 27 168 69 l23 28 40 -18
c22 -10 79 -23 126 -30 102 -15 212 -1 255 33 23 19 30 19 62 9 142 -47 293
-71 366 -57 20 4 52 21 71 37 l34 31 35 -27 c50 -38 196 -63 271 -46 29 7 61
21 70 31 17 19 18 19 56 0 27 -14 58 -20 106 -20 l68 0 105 -106 c58 -58 117
-112 131 -119 14 -8 44 -30 67 -49 l42 -35 -22 -16 c-23 -17 -23 -17 10 -11
l33 6 -36 -43 c-66 -77 -238 -216 -370 -299 -142 -89 -204 -122 -316 -166 -41
-17 -97 -44 -125 -61 -37 -23 -73 -35 -143 -46 -150 -25 -260 -55 -349 -96
-167 -77 -320 -265 -286 -352 5 -13 14 -11 61 9 30 14 87 31 127 40 39 8 97
23 129 34 70 24 182 26 234 5 31 -13 39 -13 57 -2 18 12 28 11 81 -11 71 -29
125 -26 248 12 68 22 107 25 107 10 0 -3 -22 -34 -50 -70 -77 -101 -91 -138
-62 -173 l17 -22 65 25 c36 13 83 33 105 44 72 36 125 45 225 38 202 -12 491
44 632 124 26 14 154 130 284 256 130 126 245 237 256 248 49 45 137 304 155
453 5 45 10 56 29 64 13 4 24 14 24 20 0 9 29 10 113 5 239 -16 597 -5 767 23
30 5 56 8 58 6 7 -7 31 -181 41 -310 7 -77 17 -168 22 -203 16 -100 -14 -169
-117 -277 -27 -27 -63 -68 -82 -90 -19 -22 -58 -58 -88 -80 -29 -22 -73 -57
-97 -78 -24 -20 -86 -60 -138 -87 -73 -39 -109 -66 -160 -121 l-65 -71 -85
-14 c-158 -27 -298 -116 -386 -246 -23 -35 -25 -45 -21 -122 3 -50 10 -91 18
-101 12 -14 19 -10 69 39 87 85 224 159 329 179 l32 7 -42 -61 c-24 -34 -54
-77 -68 -97 -21 -30 -25 -45 -23 -104 2 -72 15 -108 38 -108 7 0 37 31 66 70
49 67 55 71 123 92 58 19 90 23 176 21 l105 -3 115 65 c117 66 169 82 155 47
-3 -9 -18 -51 -32 -92 -43 -125 -33 -288 18 -298 10 -2 30 18 53 53 53 80 100
129 159 166 110 68 130 85 171 143 24 34 51 84 61 111 10 28 27 62 37 78 11
15 32 52 47 82 l28 55 6 -129 c4 -74 13 -147 23 -172 8 -24 24 -79 34 -122 18
-76 33 -107 51 -107 14 0 57 74 73 126 81 265 78 251 86 503 8 262 9 265 90
411 23 41 60 109 82 150 22 41 55 102 73 135 19 33 54 110 78 170 58 143 173
365 236 455 32 45 60 101 77 153 14 45 48 126 76 180 l49 98 -10 94 c-6 52
-11 119 -11 150 0 53 1 55 26 55 19 0 39 -15 72 -52 111 -127 229 -239 270
-259 34 -17 54 -20 89 -15 25 3 51 10 57 15 8 7 48 -26 127 -103 153 -149 195
-170 335 -171 l101 0 39 -50 c64 -81 314 -333 362 -365 48 -32 114 -40 153
-20 16 9 33 1 102 -48 326 -232 396 -264 506 -232 31 8 39 6 95 -34 114 -81
311 -200 376 -227 96 -41 143 -45 217 -19 l61 21 69 -34 c147 -75 523 -200
640 -214 38 -4 65 -1 98 12 42 16 49 16 86 1 22 -9 101 -32 177 -52 75 -19
139 -37 143 -39 18 -12 209 -55 240 -55 47 0 117 25 145 51 19 18 27 19 60 10
62 -17 275 -51 317 -51 37 0 87 19 117 46 13 11 27 10 85 -6 39 -11 81 -20 96
-20 26 0 104 44 128 73 19 24 54 21 112 -9 36 -18 71 -26 118 -29 36 -1 132
-8 212 -14 83 -7 156 -8 169 -3 15 6 49 2 99 -10 42 -10 101 -18 131 -17 30 1
87 -5 125 -14 81 -19 123 -21 160 -7 18 7 42 5 82 -5 107 -28 221 -15 244 27
23 42 -59 109 -180 149 -36 12 -81 30 -100 40 -18 11 -59 23 -91 27 -48 7 -64
14 -92 44 -39 42 -82 56 -193 64 -53 4 -97 14 -130 30 -75 35 -163 55 -230 52
-42 -1 -70 3 -94 16 -18 10 -76 23 -129 30 -67 8 -97 16 -100 26 -10 31 -36
49 -81 56 -25 4 -50 10 -56 14 -20 16 -135 50 -169 50 -20 0 -36 6 -39 15 -4
8 -25 24 -49 37 -38 20 -60 23 -192 26 -147 4 -150 4 -185 33 -60 47 -140 68
-355 89 -55 6 -144 19 -198 30 -90 18 -100 23 -132 58 -71 78 -179 114 -393
132 -65 5 -148 10 -185 10 -67 0 -67 0 -84 36 -34 71 -152 138 -354 200 -41
12 -118 38 -170 57 -52 19 -125 40 -161 47 -58 11 -69 17 -84 44 -49 87 -98
118 -315 203 -160 63 -176 74 -184 125 -14 84 -21 90 -302 266 -50 31 -114 68
-142 82 -36 18 -52 31 -52 45 -1 68 -118 161 -417 331 -67 39 -82 52 -87 77
-9 47 -50 92 -130 146 -39 27 -121 88 -181 135 -97 77 -112 92 -123 131 -14
47 -66 98 -199 195 -59 42 -62 47 -63 86 0 63 -17 100 -99 219 -56 81 -119
153 -241 274 -91 90 -184 179 -207 198 -66 54 -74 74 -104 253 -32 192 -70
297 -162 446 -92 149 -135 200 -333 399 -340 342 -592 527 -961 705 -498 242
-773 348 -1098 425 -110 26 -243 58 -295 71 -52 14 -128 32 -169 40 -41 9
-161 44 -267 79 -107 35 -215 67 -241 71 -27 4 -64 18 -83 30 -46 31 -138 47
-211 39 -54 -6 -58 -5 -75 20 -22 34 -72 59 -161 79 -106 24 -188 21 -246 -9z
m4538 -4585 c3 -5 1 -10 -4 -10 -6 0 -11 5 -11 10 0 6 2 10 4 10 3 0 8 -4 11
-10z m-9118 -1214 c2 -1 8 -61 15 -132 14 -137 17 -427 6 -456 -5 -13 -32 30
-97 156 -82 160 -93 187 -125 323 -19 81 -38 158 -42 170 -6 21 -1 20 118 -19
67 -22 124 -41 125 -42z"/>
</g>
</svg>
