<?xml version="1.0" standalone="no"?>
<!DOCTYPE svg PUBLIC "-//W3C//DTD SVG 20010904//EN"
 "http://www.w3.org/TR/2001/REC-SVG-20010904/DTD/svg10.dtd">
<svg version="1.0" xmlns="http://www.w3.org/2000/svg"
 width="1605.000000pt" height="1298.000000pt" viewBox="0 0 1605.000000 1298.000000"
 preserveAspectRatio="xMidYMid meet">
<metadata>
Created by potrace 1.16, written by Peter Selinger 2001-2019
</metadata>
<g transform="translate(0.000000,1298.000000) scale(0.100000,-0.100000)"
fill="#000000" stroke="none">
<path d="M2595 12935 c-17 -9 -37 -25 -44 -37 -16 -26 -69 -170 -116 -315 -18
-56 -49 -141 -68 -190 -32 -79 -57 -157 -132 -408 -66 -224 -69 -232 -102
-259 -31 -26 -36 -27 -110 -22 -77 6 -133 14 -165 22 -9 3 -25 19 -36 37 -18
31 -18 52 -11 522 7 471 6 492 -13 542 -26 72 -69 107 -121 100 -87 -12 -115
-76 -171 -387 -9 -47 -22 -132 -31 -190 -31 -211 -37 -247 -60 -375 -13 -71
-31 -177 -41 -235 -9 -58 -21 -108 -28 -113 -6 -4 -22 -6 -35 -5 -20 3 -28 13
-43 58 -33 97 -265 553 -314 618 -89 116 -156 182 -217 211 -95 46 -282 101
-368 108 -164 13 -206 -45 -280 -392 -48 -224 -62 -346 -49 -440 35 -257 198
-554 374 -679 75 -54 211 -120 287 -140 52 -13 54 -15 53 -47 0 -19 -6 -63
-12 -99 -17 -102 -25 -347 -13 -420 44 -277 60 -342 124 -495 98 -236 269
-434 519 -598 81 -53 151 -104 156 -114 5 -10 13 -36 17 -58 9 -51 40 -146 70
-212 22 -46 41 -117 77 -278 45 -205 136 -463 223 -636 76 -150 107 -242 182
-544 45 -186 99 -310 230 -535 201 -347 267 -446 389 -590 108 -128 183 -279
184 -373 0 -44 -45 -138 -150 -313 -93 -153 -133 -208 -274 -379 -185 -222
-247 -325 -310 -515 -71 -212 -117 -415 -151 -660 -42 -307 -85 -538 -145
-795 -47 -199 -61 -263 -74 -347 -27 -166 -17 -330 28 -456 42 -117 176 -321
321 -487 116 -133 144 -171 191 -261 61 -116 93 -162 143 -207 34 -31 48 -37
85 -37 63 0 100 34 148 140 22 47 53 113 68 147 63 136 79 260 46 358 -9 28
-36 75 -61 105 -85 103 -220 284 -290 390 -117 175 -119 220 -27 555 46 167
69 260 92 360 106 464 159 622 249 744 118 159 339 330 591 456 52 26 160 89
240 140 155 99 420 246 510 285 30 12 105 40 165 61 61 21 142 49 180 63 96
35 156 33 303 -13 169 -52 243 -226 244 -571 0 -91 -5 -219 -12 -285 -13 -138
-76 -514 -121 -720 -26 -124 -31 -171 -39 -405 -10 -263 -14 -306 -45 -490
-16 -97 -25 -135 -100 -445 -24 -99 -49 -207 -55 -240 -30 -160 -41 -228 -55
-320 -21 -138 -52 -379 -65 -505 -31 -314 -79 -576 -125 -685 -18 -44 -104
-173 -177 -263 -54 -68 -58 -77 -58 -124 0 -45 4 -54 34 -82 18 -18 51 -37 73
-44 59 -18 169 -15 259 7 43 11 106 25 139 32 123 23 203 58 296 126 118 86
147 137 198 348 34 141 54 272 76 492 8 79 23 198 34 265 11 68 32 206 46 308
13 102 29 217 34 255 6 39 17 133 26 210 9 77 23 183 31 235 36 228 158 649
243 837 27 60 97 220 155 356 58 136 128 291 155 345 60 119 152 328 196 442
18 47 67 166 110 265 76 179 96 234 195 540 82 253 133 366 198 437 31 33 83
79 116 102 106 74 156 89 369 116 103 13 228 36 325 62 234 61 311 72 757 113
94 9 227 22 298 31 124 15 167 13 167 -7 0 -5 82 -94 183 -197 137 -141 211
-227 300 -349 65 -89 137 -184 160 -210 24 -26 72 -84 109 -128 92 -111 478
-490 624 -612 130 -109 277 -267 361 -390 114 -165 143 -251 143 -423 0 -155
-14 -204 -150 -545 -57 -144 -139 -312 -219 -450 -62 -107 -188 -355 -224
-440 -25 -59 -67 -150 -154 -335 -108 -228 -171 -378 -208 -500 -13 -41 -42
-127 -64 -191 -49 -140 -64 -208 -90 -410 -19 -146 -22 -159 -65 -239 -61
-116 -83 -197 -67 -249 22 -75 87 -100 189 -75 67 16 227 95 290 142 50 38 74
88 150 312 153 449 234 648 336 828 25 44 96 176 159 293 63 118 145 266 182
329 37 63 110 192 162 285 119 213 221 369 333 510 128 161 211 276 363 502
158 235 169 255 198 360 54 194 13 424 -146 827 -30 77 -52 142 -50 144 2 3
82 -47 177 -110 95 -64 223 -141 283 -173 61 -32 175 -95 255 -140 80 -45 181
-101 225 -125 149 -80 284 -159 407 -240 68 -44 215 -126 328 -181 404 -199
446 -221 539 -287 110 -78 196 -161 251 -242 38 -56 152 -281 233 -457 149
-326 274 -687 400 -1148 27 -99 92 -323 134 -465 27 -86 55 -142 89 -171 11
-10 96 -68 189 -130 94 -62 189 -131 213 -153 100 -92 341 -433 441 -624 62
-118 95 -152 150 -152 76 0 112 67 171 315 29 120 27 247 -6 343 -41 124 -88
202 -266 441 -240 323 -290 401 -404 631 -207 416 -302 676 -449 1220 -43 161
-145 477 -220 685 -59 165 -68 187 -148 390 -31 77 -72 183 -91 236 -82 218
-205 367 -432 523 -218 151 -309 229 -425 366 -34 41 -104 118 -154 170 -178
185 -252 298 -308 471 -59 181 -59 308 2 560 36 147 59 217 140 406 84 198
118 317 150 528 23 146 41 402 41 568 l0 173 -39 100 c-42 106 -158 332 -212
411 -53 78 -130 158 -230 240 -140 113 -220 162 -479 293 -129 65 -314 162
-410 217 -211 119 -286 154 -518 239 -97 36 -271 105 -387 154 -115 48 -259
107 -320 130 -187 72 -562 192 -695 224 -36 8 -130 31 -210 50 -231 55 -301
65 -514 77 -208 12 -600 8 -1276 -10 -407 -11 -425 -13 -735 -72 -407 -78
-471 -91 -605 -124 -162 -41 -243 -57 -415 -85 -71 -11 -227 -37 -345 -56
-118 -19 -258 -41 -310 -49 -94 -15 -132 -21 -285 -49 -182 -33 -231 -37 -563
-46 -360 -10 -443 -16 -702 -49 -498 -63 -786 -41 -1025 81 -107 54 -148 83
-244 174 -94 89 -127 133 -163 224 -42 104 -48 129 -48 194 0 87 68 259 130
330 36 41 49 47 230 113 320 116 465 203 572 343 57 76 107 202 129 327 19
109 -16 311 -76 437 -41 87 -75 100 -275 104 -203 5 -287 -10 -485 -85 -140
-54 -246 -143 -295 -248 -16 -33 -30 -67 -32 -75 -10 -33 -17 268 -9 320 5 30
25 118 44 195 93 367 127 697 84 809 -6 17 -23 34 -43 42 -40 17 -32 17 -69
-1z"/>
</g>
</svg>
