<?xml version="1.0" standalone="no"?>
<!DOCTYPE svg PUBLIC "-//W3C//DTD SVG 20010904//EN"
 "http://www.w3.org/TR/2001/REC-SVG-20010904/DTD/svg10.dtd">
<svg version="1.0" xmlns="http://www.w3.org/2000/svg"
 width="953.000000pt" height="1083.000000pt" viewBox="0 0 953.000000 1083.000000"
 preserveAspectRatio="xMidYMid meet">
<metadata>
Created by potrace 1.16, written by Peter Selinger 2001-2019
</metadata>
<g transform="translate(0.000000,1083.000000) scale(0.100000,-0.100000)"
fill="#000000" stroke="none">
<path d="M1876 10808 c-43 -67 -74 -305 -86 -651 -5 -143 -10 -260 -12 -260
-13 -7 -64 -37 -105 -62 -66 -41 -114 -39 -222 9 -46 21 -101 41 -122 43 -47
7 -42 -10 -64 238 -20 227 -62 555 -77 607 -13 46 -43 79 -63 72 -30 -12 -38
-78 -42 -354 -3 -228 -1 -304 16 -445 l19 -170 -31 -27 -32 -27 -25 52 c-14
29 -40 90 -59 136 -86 214 -226 349 -464 447 l-92 39 -152 0 c-139 0 -154 -2
-180 -21 -63 -47 -68 -68 -71 -304 -4 -235 5 -329 44 -452 47 -149 201 -331
328 -388 56 -26 250 -80 284 -80 8 0 41 -12 73 -26 50 -23 64 -35 93 -83 19
-31 43 -83 54 -116 26 -79 85 -433 84 -510 0 -85 -45 -283 -104 -465 -41 -124
-51 -171 -53 -235 -2 -57 -15 -122 -44 -225 -49 -172 -131 -597 -161 -833 -28
-225 -32 -569 -7 -747 51 -365 111 -556 288 -915 136 -277 295 -508 404 -586
41 -29 45 -36 45 -74 0 -22 7 -92 16 -155 20 -140 14 -490 -10 -645 -9 -55
-20 -181 -26 -280 -5 -99 -21 -252 -35 -340 -36 -226 -47 -402 -34 -560 11
-135 8 -197 -16 -375 -8 -58 -22 -179 -30 -269 -16 -171 -29 -242 -50 -276 -6
-11 -40 -85 -75 -165 -34 -80 -106 -230 -159 -335 -54 -104 -109 -218 -124
-252 -29 -69 -43 -82 -241 -217 -167 -114 -173 -147 -31 -167 90 -13 323 -6
353 10 10 5 44 41 74 78 31 37 106 122 167 188 62 66 119 136 128 155 9 19 26
58 39 87 13 28 24 57 24 62 0 8 6 7 19 0 25 -16 51 -5 51 23 1 65 22 213 34
236 7 15 28 77 46 137 34 119 35 122 106 333 47 142 48 144 35 200 -29 129
-33 160 -27 227 9 112 51 302 91 410 21 55 68 204 106 330 38 127 80 262 94
300 53 151 172 603 239 911 14 66 34 145 44 175 16 46 24 56 56 68 20 8 39 12
41 9 10 -9 47 -152 60 -233 62 -354 71 -929 20 -1190 -8 -38 -21 -103 -30
-143 -8 -40 -22 -157 -30 -260 -17 -219 -9 -344 31 -499 46 -174 53 -216 60
-338 7 -131 -2 -221 -41 -425 -29 -150 -80 -342 -102 -384 -20 -38 -145 -205
-170 -227 -10 -8 -72 -63 -138 -122 -65 -59 -131 -110 -145 -113 -83 -19 -101
-27 -129 -59 -17 -20 -31 -42 -31 -50 0 -28 46 -46 127 -49 43 -2 121 -7 173
-11 111 -8 91 -19 297 153 66 55 143 117 171 137 37 26 54 46 62 73 44 147 41
143 80 140 l35 -3 -3 70 c-4 76 19 224 49 320 33 105 58 238 64 341 17 278 48
599 66 684 11 52 27 124 35 160 7 36 25 128 40 205 31 169 61 291 120 490 25
83 74 269 109 415 64 270 126 495 189 698 20 62 43 143 51 180 8 37 17 76 20
87 4 20 12 20 352 20 367 0 600 13 823 46 182 27 290 54 606 148 148 45 283
83 300 87 28 5 53 -10 270 -167 131 -95 327 -227 434 -294 107 -67 247 -155
310 -197 63 -41 158 -98 210 -128 137 -77 533 -315 615 -371 39 -25 109 -83
156 -127 70 -66 91 -93 119 -154 30 -64 35 -86 38 -170 6 -148 -15 -407 -43
-518 -13 -52 -26 -129 -30 -170 -4 -43 -24 -126 -46 -195 -22 -66 -57 -185
-79 -265 -22 -80 -50 -176 -63 -215 -48 -140 -150 -383 -204 -483 -64 -120
-125 -285 -159 -432 -14 -58 -32 -115 -40 -128 -8 -12 -79 -74 -157 -136 -79
-63 -148 -126 -155 -140 -40 -88 18 -113 217 -94 104 10 117 14 156 43 23 18
95 65 161 104 65 40 141 93 167 119 51 49 127 186 174 312 13 36 53 117 88
180 35 64 70 144 79 179 9 36 18 67 21 69 2 2 21 4 42 5 71 1 75 22 30 157
-15 45 -21 88 -20 140 1 139 71 437 178 770 30 91 61 208 69 260 15 90 83 320
147 495 40 110 71 260 67 321 l-3 52 30 -21 c17 -12 72 -62 124 -112 156 -150
278 -323 388 -551 113 -235 149 -362 248 -873 14 -74 36 -173 49 -220 51 -180
81 -368 101 -610 28 -339 15 -435 -82 -597 -55 -93 -84 -125 -301 -323 -56
-52 -102 -97 -102 -100 1 -21 25 -33 84 -42 108 -17 346 15 428 57 29 15 120
136 143 189 7 17 61 78 119 136 138 138 161 185 153 303 -3 45 -10 94 -16 109
-6 16 -7 26 -2 23 4 -3 17 1 27 9 19 13 18 15 -4 102 -13 48 -38 122 -57 163
-53 121 -101 308 -145 565 -22 132 -54 292 -71 355 -17 63 -39 147 -50 185
-10 39 -30 144 -44 235 -34 219 -69 401 -105 535 -45 174 -99 441 -155 765 -9
52 -20 97 -24 100 -4 3 -15 27 -26 55 -29 78 -92 136 -254 234 -233 141 -433
271 -467 303 -42 39 -79 116 -104 212 -25 98 -25 107 1 308 21 173 32 226 55
270 16 30 92 83 169 117 27 12 58 29 68 39 34 30 86 148 165 370 l76 217 1
325 c0 308 -1 329 -23 403 -43 149 -97 251 -215 399 -131 167 -291 298 -572
470 -309 188 -504 266 -905 362 -196 47 -231 52 -485 77 -318 30 -400 33 -527
20 -214 -22 -351 -60 -718 -196 -85 -32 -227 -80 -315 -107 -88 -27 -243 -75
-345 -108 -646 -208 -638 -206 -920 -236 -181 -19 -290 -25 -475 -26 -413 -1
-603 24 -855 116 l-95 34 -16 53 c-17 55 -49 281 -49 343 0 21 14 61 34 98 75
137 175 411 206 561 33 163 39 249 28 365 -13 130 2 262 36 331 54 106 133
171 341 282 166 88 243 165 303 301 51 116 71 210 79 380 6 134 -8 244 -48
373 -23 72 -63 105 -137 113 -55 5 -113 -16 -228 -84 -277 -163 -425 -307
-514 -499 -65 -140 -128 -259 -138 -263 -14 -4 -25 300 -20 533 7 290 -14 434
-64 435 -4 0 -14 -10 -22 -22z"/>
</g>
</svg>
